<?xml version="1.0" encoding="UTF-8"?>
<svg id="Capa_1_copia" data-name="Capa 1 copia" xmlns="http://www.w3.org/2000/svg" viewBox="0 0 496.81 198.73">
  <defs>
    <style>
      .cls-1 {
        stroke-width: 0px;
      }
    </style>
  </defs>
  <rect class="cls-1" x="99.34" y="50.39" width="2.38" height="10.82"/>
  <path class="cls-1" d="m115.95,60.67c.87.48,1.85.72,2.95.72,1.73,0,3.27-.57,4.62-1.72v-4.7h-4.7v2.06h2.4v1.55c-.6.43-1.34.65-2.24.65-.63,0-1.19-.15-1.69-.44-.5-.29-.89-.7-1.17-1.23-.28-.53-.42-1.11-.42-1.76v-.03c0-.61.14-1.17.42-1.68.28-.52.65-.92,1.13-1.23.47-.3.99-.46,1.56-.46s1.09.09,1.51.26c.42.18.86.45,1.31.83l1.5-1.81c-.6-.5-1.22-.88-1.87-1.12-.65-.24-1.44-.36-2.38-.36-1.07,0-2.04.25-2.91.75-.87.5-1.54,1.18-2.03,2.03-.49.85-.73,1.79-.73,2.81v.03c0,1.06.24,2.01.72,2.86.48.84,1.15,1.51,2.02,1.99Z"/>
  <polygon class="cls-1" points="142.86 59.04 137.47 59.04 137.47 50.39 135.09 50.39 135.09 61.21 142.86 61.21 142.86 59.04"/>
  <polygon class="cls-1" points="162.16 59.09 156.29 59.09 156.29 56.82 161.39 56.82 161.39 54.7 156.29 54.7 156.29 52.51 162.09 52.51 162.09 50.39 153.93 50.39 153.93 61.21 162.16 61.21 162.16 59.09"/>
  <path class="cls-1" d="m178.59,58.99c-.28.18-.66.27-1.14.27-.59,0-1.14-.11-1.67-.34-.53-.23-1.05-.55-1.56-.97l-1.41,1.68c.64.57,1.35,1,2.15,1.29.79.29,1.61.44,2.44.44,1.2,0,2.16-.3,2.88-.89.73-.59,1.09-1.41,1.09-2.46v-.03c0-.9-.28-1.58-.83-2.06-.56-.48-1.42-.87-2.6-1.18-.66-.16-1.15-.31-1.47-.43s-.54-.26-.67-.41c-.13-.15-.19-.34-.19-.58v-.03c0-.28.12-.5.36-.68.24-.17.58-.26,1.03-.26.86,0,1.79.36,2.81,1.07l1.24-1.79c-1.14-.92-2.48-1.38-4.02-1.38-.73,0-1.38.14-1.96.41-.57.27-1.02.65-1.34,1.14s-.49,1.06-.49,1.71v.03c0,.69.14,1.24.42,1.66.28.42.67.74,1.17.97.5.23,1.16.46,1.99.67.6.15,1.05.3,1.37.43.31.13.53.27.64.41.11.14.17.32.17.54v.03c0,.32-.14.57-.42.75Z"/>
  <rect class="cls-1" x="192.83" y="50.39" width="2.38" height="10.82"/>
  <path class="cls-1" d="m209.67,58.78h4.57l.99,2.43h2.49l-4.64-10.9h-2.19l-4.64,10.9h2.43l.99-2.43Zm2.29-5.61l1.44,3.51h-2.87l1.44-3.51Z"/>
  <path class="cls-1" d="m244.82,60.65c.84.49,1.79.74,2.83.74s1.83-.16,2.51-.49c.69-.32,1.33-.81,1.92-1.45l-1.51-1.53c-.47.43-.92.75-1.34.96-.42.21-.92.31-1.5.31-.61,0-1.15-.15-1.62-.46-.47-.3-.85-.72-1.11-1.24-.27-.52-.4-1.09-.4-1.71v-.03c0-.62.13-1.18.4-1.69.27-.51.64-.92,1.12-1.22.48-.3,1.02-.46,1.61-.46.52,0,.99.1,1.44.31.44.21.89.51,1.33.91l1.51-1.75c-.55-.55-1.15-.96-1.82-1.24-.67-.28-1.48-.43-2.44-.43-1.08,0-2.05.25-2.91.75-.86.5-1.53,1.18-2.01,2.03-.48.85-.72,1.79-.72,2.81v.03c0,1.02.24,1.96.73,2.81s1.15,1.52,1.99,2.02Z"/>
  <path class="cls-1" d="m265.64,57.75h1.87l2.32,3.46h2.78l-2.64-3.86c.72-.27,1.29-.68,1.7-1.24s.62-1.26.62-2.11v-.03c0-1.11-.36-1.99-1.08-2.62-.72-.63-1.72-.95-3-.95h-4.95v10.82h2.38v-3.46Zm0-5.21h2.36c.59,0,1.05.13,1.38.39.33.26.49.65.49,1.15v.03c0,.46-.16.83-.49,1.11-.32.28-.77.42-1.34.42h-2.41v-3.11Z"/>
  <rect class="cls-1" x="283.81" y="50.39" width="2.38" height="10.82"/>
  <path class="cls-1" d="m303.21,58.99c-.28.18-.66.27-1.14.27-.59,0-1.14-.11-1.67-.34-.53-.23-1.05-.55-1.56-.97l-1.41,1.68c.64.57,1.35,1,2.15,1.29.79.29,1.61.44,2.44.44,1.2,0,2.16-.3,2.88-.89.73-.59,1.09-1.41,1.09-2.46v-.03c0-.9-.28-1.58-.83-2.06-.56-.48-1.42-.87-2.6-1.18-.66-.16-1.15-.31-1.47-.43s-.54-.26-.67-.41c-.13-.15-.19-.34-.19-.58v-.03c0-.28.12-.5.36-.68.24-.17.58-.26,1.03-.26.86,0,1.79.36,2.81,1.07l1.24-1.79c-1.14-.92-2.48-1.38-4.02-1.38-.73,0-1.38.14-1.96.41-.57.27-1.02.65-1.34,1.14s-.49,1.06-.49,1.71v.03c0,.69.14,1.24.42,1.66.28.42.67.74,1.17.97.5.23,1.16.46,1.99.67.6.15,1.05.3,1.37.43.31.13.53.27.64.41.11.14.17.32.17.54v.03c0,.32-.14.57-.42.75Z"/>
  <polygon class="cls-1" points="319.62 61.21 322 61.21 322 52.58 325.3 52.58 325.3 50.39 316.33 50.39 316.33 52.58 319.62 52.58 319.62 61.21"/>
  <rect class="cls-1" x="336.5" y="50.39" width="2.38" height="10.82"/>
  <path class="cls-1" d="m353.35,58.78h4.57l.99,2.43h2.49l-4.64-10.9h-2.19l-4.64,10.9h2.43l.99-2.43Zm2.29-5.61l1.44,3.51h-2.87l1.44-3.51Z"/>
  <polygon class="cls-1" points="374.69 54.33 379.93 61.21 381.96 61.21 381.96 50.39 379.61 50.39 379.61 57.05 374.54 50.39 372.34 50.39 372.34 61.21 374.69 61.21 374.69 54.33"/>
  <path class="cls-1" d="m396.31,58.78h4.57l.99,2.43h2.49l-4.64-10.9h-2.19l-4.64,10.9h2.43l.99-2.43Zm2.29-5.61l1.44,3.51h-2.87l1.44-3.51Z"/>
  <path class="cls-1" d="m98.43,107.84c-.98.07-1.8.11-2.45.11-1.96.07-3.92.16-5.88.27-1.96.11-3.89.27-5.78.49-2.04.29-4.05.6-6.05.93-2,.33-3.98.75-5.94,1.25,1.02-1.81,2.09-3.63,3.21-5.45,1.13-1.81,2.27-3.6,3.43-5.34,1.89-2.83,3.83-5.56,5.83-8.17,2-2.62,4.12-5.16,6.38-7.63,1.45-.58,2.89-1.09,4.3-1.53,1.42-.44,2.85-.91,4.3-1.42,3.34-.94,6.68-1.76,10.03-2.45,3.34-.69,6.76-1.18,10.24-1.47,1.67-.15,3.36-.22,5.07-.22s3.43.07,5.18.22c1.38.15,2.78.42,4.2.82,1.42.4,2.89.6,4.41.6.65-.07,1.11-.27,1.36-.6.25-.33.36-.71.33-1.14-.04-.44-.2-.83-.49-1.2-.29-.36-.65-.62-1.09-.76-1.67-.58-3.36-.89-5.07-.93-1.71-.04-3.43-.09-5.18-.16-3.34,0-6.67.2-9.97.6-3.31.4-6.59,1-9.86,1.8-2.33.51-4.65,1.07-6.98,1.69-2.33.62-4.65,1.25-6.97,1.91,1.38-1.38,2.8-2.69,4.25-3.92,1.45-1.23,3.01-2.4,4.69-3.49.44-.29.94-.62,1.53-.98.58-.36,1.2-.69,1.85-.98.65-.29,1.29-.47,1.91-.54.62-.07,1.22,0,1.8.22.94.44,1.73.27,2.34-.49.62-.76.64-1.54.05-2.34-.36-.44-.82-.74-1.36-.93-.54-.18-1.11-.25-1.69-.22-.58.04-1.18.13-1.8.27-.62.15-1.14.29-1.58.44-3.34,1.45-6.41,3.56-9.21,6.32-2.8,2.76-5.36,5.52-7.68,8.28-3.56,1.09-7.05,2.25-10.46,3.49-3.42,1.24-6.87,2.47-10.35,3.71-.58.22-.94.56-1.09,1.04-.15.47-.13.95.05,1.42.18.47.51.84.98,1.09.47.26,1,.24,1.58-.05,1.53-.65,3.07-1.32,4.63-2.02,1.56-.69,3.18-1.36,4.85-2.02l6.21-2.51c-2.11,2.62-4.12,5.29-6.05,8.01-1.93,2.72-3.76,5.47-5.5,8.23-1.02,1.67-2.04,3.32-3.05,4.96-1.02,1.63-2,3.29-2.94,4.96-2.54.73-4.9,1.56-7.08,2.51-.44.29-.69.65-.76,1.09-.07.44.14.84.65,1.2.36.29.8.38,1.31.27.51-.11,1-.29,1.47-.54.47-.25.94-.53,1.42-.82.47-.29.89-.47,1.25-.54-.73,1.38-1.4,2.78-2.02,4.2-.62,1.42-1.22,2.85-1.8,4.3-.73,1.89-1.35,3.87-1.85,5.94-.51,2.07-.62,4.12-.33,6.16.07.44.22,1,.44,1.69.22.69.51,1.32.87,1.91.36.58.8,1.02,1.31,1.31.51.29,1.09.25,1.74-.11.8-.58,1.09-1.2.87-1.85-.22-.65-.51-1.27-.87-1.85-.51-.58-.82-1.25-.93-2.02s-.13-1.54-.05-2.34c0-1.82.25-3.6.76-5.34.51-1.74,1.09-3.45,1.74-5.12.58-1.38,1.14-2.74,1.69-4.09.54-1.34,1.22-2.67,2.02-3.98,2.03-.58,4.29-1.05,6.76-1.42,2.03-.36,4.05-.63,6.05-.82,2-.18,4.05-.27,6.16-.27h3.05c1.02,0,2.03.04,3.05.11.58.15,1.23.26,1.96.33.73.07,1.38.04,1.96-.11.58-.22.98-.64,1.2-1.25.22-.62.11-1.22-.33-1.8-.51-.65-1.25-.94-2.23-.87Z"/>
  <path class="cls-1" d="m136.96,83.98c-.95.15-1.94.35-3,.6-1.05.26-2.05.6-3,1.04-.94.44-1.8,1-2.56,1.69-.76.69-1.33,1.51-1.69,2.45-.29.87-.04,1.6.76,2.18.8.58,1.56.58,2.29,0,.58-.44,1.02-1.02,1.31-1.74.29-.73.8-1.31,1.53-1.74,1.81-1.23,3.87-1.91,6.16-2.02,2.29-.11,4.49.05,6.59.49.36.07.69-.02.98-.27.29-.25.47-.56.54-.93.07-.65-.16-1.05-.71-1.2-.54-.15-1.04-.22-1.47-.22-2.54-.36-5.12-.47-7.74-.33Z"/>
  <path class="cls-1" d="m385.22,91.93c.8.58,1.56.58,2.29,0,.58-.44,1.02-1.02,1.31-1.74.29-.73.8-1.31,1.53-1.74,1.81-1.23,3.87-1.91,6.16-2.02,2.29-.11,4.49.05,6.59.49.36.07.69-.02.98-.27.29-.25.47-.56.54-.93.07-.65-.16-1.05-.71-1.2-.54-.15-1.04-.22-1.47-.22-2.54-.36-5.12-.47-7.74-.33-.95.15-1.94.35-3,.6-1.05.26-2.05.6-3,1.04-.94.44-1.8,1-2.56,1.69-.76.69-1.33,1.51-1.69,2.45-.29.87-.04,1.6.76,2.18Z"/>
  <path class="cls-1" d="m443.74,117.65c-.22-.44-.58-.65-1.09-.65s-1.04.11-1.58.33c-.54.22-1.07.49-1.58.82-.51.33-.91.53-1.2.6-1.16.58-2.54,1.22-4.14,1.91-1.6.69-3.21,1.29-4.85,1.8-1.63.51-3.22.91-4.74,1.2-1.53.29-2.8.36-3.81.22-.36-.07-.62-.23-.76-.49-.15-.25-.07-.64.22-1.14.22-.58.49-1.04.82-1.36.33-.33.67-.67,1.04-1.04s.62-.8.76-1.31c.29-.94.05-1.69-.71-2.23-.76-.54-1.47-.45-2.12.27-1.31,1.45-3.02,2.83-5.12,4.14-.29.22-.87.56-1.74,1.04-.87.47-1.82.93-2.83,1.36-1.02.44-2.02.76-3,.98-.98.22-1.69.15-2.12-.22-.51-.44-.51-1.14,0-2.12.51-.98,1.2-2,2.07-3.05.87-1.05,1.76-2.03,2.67-2.94s1.54-1.51,1.91-1.8c.87-.58,1.65-1.07,2.34-1.47.69-.4,1.54-.74,2.56-1.04l4.9-.54c.8-.14,1.47-.54,2.02-1.2s.38-1.38-.49-2.18c-.58-.36-1.51-.47-2.78-.33-1.27.15-2.63.4-4.09.76-1.45.36-2.83.76-4.14,1.2-1.31.44-2.22.76-2.72.98-.95.36-2.13.84-3.54,1.42-1.42.58-2.89,1.2-4.41,1.85s-2.96,1.33-4.31,2.02c-1.12.58-2.07,1.06-2.86,1.46-.12.02-.22.03-.35.07-.94.26-1.98.65-3.11,1.2-1.13.54-2.2,1.11-3.22,1.69-1.02.58-1.71.95-2.07,1.09-1.24.44-2.6.87-4.09,1.31-1.49.44-2.85.58-4.09.44-.65-.87-.78-2-.38-3.38.4-1.38.82-2.54,1.25-3.49.22-.65.56-1.31,1.04-1.96.47-.65.78-1.31.93-1.96.22-1.16-.04-1.83-.76-2.02-.73-.18-1.6-.16-2.62.05-1.02.22-2.05.54-3.11.98-1.05.44-1.73.73-2.02.87l-10.9,5.23c-.13.06-.24.13-.34.2-.28.14-.56.3-.86.51-.87.62-1.63,1.07-2.29,1.36-.94.36-1.89.71-2.83,1.04-.95.33-1.93.6-2.94.82-1.67.22-2.96-.07-3.87-.87-.91-.8-1.33-2.25-1.25-4.36l4.36-8.28c.8-.73,1.63-1.45,2.51-2.18.87-.73,1.71-1.49,2.51-2.29,2.47-2.11,4.8-4.36,6.98-6.76,2.18-2.4,4.18-4.94,5.99-7.63.44-.51.98-1.29,1.63-2.34.65-1.05,1.14-2.11,1.47-3.16.33-1.05.33-1.98,0-2.78-.33-.8-1.25-1.2-2.78-1.2s-2.76.38-3.92,1.14c-1.16.76-2.23,1.71-3.22,2.83-.98,1.13-1.85,2.33-2.62,3.6-.76,1.27-1.44,2.45-2.02,3.54-1.6,2.54-3.07,5.16-4.41,7.85-1.35,2.69-2.71,5.34-4.09,7.96-2.76,2.11-5.63,4.11-8.61,5.99-2.9,1.84-5.91,3.47-9.02,4.9-.31.04-.65.14-1,.33-.8.44-1.49.73-2.07.87-2.03.87-4.11,1.67-6.21,2.4-2.11.73-4.25,1.31-6.43,1.74-.15.07-.47.13-.98.16-.51.04-1.05.09-1.63.16-.65.07-1.38.18-2.18.33-.22-.94-.26-1.94-.11-3,.14-1.05.4-2.13.76-3.22.36-1.09.78-2.12,1.25-3.11.47-.98.89-1.91,1.25-2.78,4.14-3.05,8.01-6.38,11.61-9.97,3.6-3.6,6.85-7.47,9.75-11.61.36-.51.83-1.11,1.42-1.8.58-.69,1.13-1.42,1.63-2.18.51-.76.89-1.53,1.14-2.29.25-.76.23-1.54-.05-2.34-.44-1.23-1.24-1.76-2.4-1.58-1.16.18-2.14.49-2.94.93-1.67.95-3.14,2.16-4.41,3.65-1.27,1.49-2.45,2.96-3.54,4.41-1.31,1.67-2.58,3.36-3.81,5.07-1.24,1.71-2.47,3.4-3.71,5.07-1.16,1.82-2.36,3.67-3.6,5.56-1.24,1.89-2.36,3.85-3.38,5.89-2.11,1.45-4.21,2.8-6.32,4.03-2.11,1.24-4.29,2.36-6.54,3.38-.33.17-.56.34-.7.53-.35.17-.72.34-1.1.5-.76.33-1.51.67-2.23,1.04-1.6.73-3.23,1.36-4.9,1.91-1.67.54-3.38,1-5.12,1.36-1.24.22-2.6.36-4.09.44-1.49.07-2.93-.09-4.3-.49-1.38-.4-2.58-1.04-3.6-1.91-1.02-.87-1.67-2.11-1.96-3.71h.44c1.6.15,3.18.02,4.74-.38,1.56-.4,3-1,4.3-1.8.36-.22.93-.56,1.69-1.04.76-.47,1.45-1,2.07-1.58.62-.58,1.05-1.2,1.31-1.85.25-.65.13-1.27-.38-1.85-.73-.94-1.76-1.49-3.11-1.63-1.35-.14-2.53-.14-3.54,0-1.96.36-3.81,1.07-5.56,2.13-1.74,1.05-3.09,2.42-4.03,4.09-1.45.58-2.89,1.27-4.31,2.07-1.42.8-2.78,1.53-4.09,2.18-.12.04-.22.09-.31.16-.04.02-.09.03-.13.06-1.89,1.02-3.87,2.09-5.94,3.22-2.07,1.13-4.12,2.09-6.16,2.89-1.16.51-2.42,1.02-3.76,1.53-1.35.51-2.67.8-3.98.87-.07-.36-.05-.83.05-1.42.11-.58.25-1.16.44-1.74.18-.58.36-1.13.54-1.63.18-.51.34-.94.49-1.31.36-1.02.71-2,1.04-2.94.33-.94.67-1.92,1.04-2.94,2.76-2.62,5.4-5.32,7.9-8.12,2.51-2.8,4.99-5.68,7.47-8.66,1.6-1.89,3.18-3.78,4.74-5.67,1.56-1.89,2.96-3.89,4.2-5.99.29-.51.53-1.11.71-1.8.18-.69.25-1.34.22-1.96-.04-.62-.24-1.14-.6-1.58-.36-.44-.95-.73-1.74-.87-.51-.15-1-.15-1.47,0-.47.15-.96.29-1.47.44-1.74.87-3.27,2.12-4.58,3.76-1.31,1.63-2.51,3.21-3.6,4.74-1.16,1.67-2.25,3.34-3.27,5.01-1.02,1.67-2.03,3.34-3.05,5.01-1.45,2.47-2.87,4.96-4.25,7.47-1.38,2.51-2.69,5.03-3.92,7.57l-5.12,4.58c-1.16.8-2.29,1.6-3.38,2.4-1.09.8-2.25,1.56-3.49,2.29-.15.07-.42.24-.82.49-.4.26-.84.51-1.31.76-.47.26-.95.44-1.42.54-.47.11-.82.05-1.04-.16s-.27-.54-.16-.98.27-.91.49-1.42c.22-.51.45-1,.71-1.47.25-.47.42-.78.49-.93,1.02-1.45,2.14-2.62,3.38-3.49.94-.8,1.94-1.47,3-2.02,1.05-.54,2.09-.85,3.11-.93h1.47c.54,0,1.09-.02,1.63-.05.54-.04,1.04-.14,1.47-.33.44-.18.76-.49.98-.93.36-.65.33-1.27-.11-1.85-.44-.58-.98-.87-1.63-.87-1.67,0-3.23.26-4.69.76-1.24.36-2.47.73-3.71,1.09-1.24.36-2.44.84-3.6,1.42-1.82.8-3.58,1.67-5.29,2.62-1.71.95-3.51,1.74-5.4,2.4-.07.02-.12.05-.18.08-.28.05-.57.13-.86.25-.54.22-1.07.49-1.58.82-.51.33-.91.53-1.2.6-1.16.58-2.54,1.22-4.14,1.91-1.6.69-3.21,1.29-4.85,1.8-1.63.51-3.22.91-4.74,1.2-1.53.29-2.8.36-3.81.22-.36-.07-.62-.23-.76-.49-.15-.25-.07-.64.22-1.14.22-.58.49-1.04.82-1.36.33-.33.67-.67,1.04-1.04s.62-.8.76-1.31c.29-.94.05-1.69-.71-2.23-.76-.54-1.47-.45-2.12.27-1.31,1.45-3.02,2.83-5.12,4.14-.29.22-.87.56-1.74,1.04-.87.47-1.82.93-2.83,1.36-1.02.44-2.02.76-3,.98-.98.22-1.69.15-2.12-.22-.51-.44-.51-1.14,0-2.12.51-.98,1.2-2,2.07-3.05.87-1.05,1.76-2.03,2.67-2.94s1.54-1.51,1.91-1.8c.87-.58,1.65-1.07,2.34-1.47.69-.4,1.54-.74,2.56-1.04l4.9-.54c.8-.14,1.47-.54,2.02-1.2s.38-1.38-.49-2.18c-.58-.36-1.51-.47-2.78-.33-1.27.15-2.63.4-4.09.76-1.45.36-2.83.76-4.14,1.2-1.31.44-2.22.76-2.72.98-.95.36-2.13.84-3.54,1.42-1.42.58-2.89,1.2-4.41,1.85s-2.96,1.33-4.31,2.02c-1.17.6-2.14,1.1-2.95,1.5-.26.05-.52.14-.81.3-.8.44-1.49.73-2.07.87-2.03.87-4.11,1.67-6.21,2.4-2.11.73-4.25,1.31-6.43,1.74-.15.07-.47.13-.98.16-.51.04-1.05.09-1.63.16-.65.07-1.38.18-2.18.33-.22-.94-.26-1.94-.11-3,.14-1.05.4-2.13.76-3.22.36-1.09.78-2.12,1.25-3.11.47-.98.89-1.91,1.25-2.78,4.14-3.05,8.01-6.38,11.61-9.97,3.6-3.6,6.85-7.47,9.75-11.61.36-.51.83-1.11,1.42-1.8.58-.69,1.13-1.42,1.63-2.18.51-.76.89-1.53,1.14-2.29.25-.76.23-1.54-.05-2.34-.44-1.23-1.24-1.76-2.4-1.58-1.16.18-2.14.49-2.94.93-1.67.95-3.14,2.16-4.41,3.65-1.27,1.49-2.45,2.96-3.54,4.41-1.31,1.67-2.58,3.36-3.81,5.07-1.24,1.71-2.47,3.4-3.71,5.07-1.16,1.82-2.36,3.67-3.6,5.56-1.24,1.89-2.36,3.85-3.38,5.89-2.11,1.45-4.21,2.8-6.32,4.03-2.05,1.2-4.17,2.29-6.35,3.29-.07.02-.12.02-.19.04-.94.26-1.98.65-3.11,1.2-1.13.54-2.2,1.11-3.22,1.69-1.02.58-1.71.95-2.07,1.09-1.24.44-2.6.87-4.09,1.31-1.49.44-2.85.58-4.09.44-.65-.87-.78-2-.38-3.38.4-1.38.82-2.54,1.25-3.49.22-.65.56-1.31,1.04-1.96.47-.65.78-1.31.93-1.96.22-1.16-.04-1.83-.76-2.02-.73-.18-1.6-.16-2.62.05-1.02.22-2.05.54-3.11.98-1.05.44-1.73.73-2.02.87l-10.9,5.23c-.87.44-1.07.96-.6,1.58.47.62,1.11.82,1.91.6,1.31-.73,2.62-1.38,3.92-1.96,1.53-.73,3.09-1.36,4.69-1.91,1.6-.54,3.23-1.14,4.9-1.8-.44,1.31-.85,2.74-1.25,4.31-.4,1.56-.6,3.02-.6,4.36s.29,2.45.87,3.32c.58.87,1.63,1.2,3.16.98,1.74-.29,3.43-.82,5.07-1.58,1.63-.76,3.25-1.54,4.85-2.34.29-.14.94-.42,1.96-.82,1.02-.4,2.02-.83,3-1.31.71-.34,1.34-.72,1.88-1.12.18.02.37.01.57-.03,3.27-1.6,6.39-3.38,9.37-5.34-.8,1.74-1.45,3.49-1.96,5.23-.22.8-.36,1.65-.44,2.56-.07.91.02,1.74.27,2.51.25.76.71,1.38,1.36,1.85s1.53.64,2.62.49c1.23-.07,2.43-.34,3.6-.82,1.16-.47,2.36-.93,3.6-1.36l12.64-4.69c.23-.1.48-.23.73-.39.12-.04.24-.08.36-.16,1.31-.65,2.74-1.36,4.31-2.13,1.56-.76,3.05-1.51,4.47-2.23,1.42-.73,2.69-1.34,3.81-1.85,1.13-.51,1.94-.83,2.45-.98-.94.51-1.96,1.27-3.05,2.29-1.09,1.02-2.09,2.12-3,3.32-.91,1.2-1.65,2.36-2.23,3.49-.58,1.13-.87,2.05-.87,2.78.07,1.38.62,2.4,1.63,3.05,1.02.65,2.18.94,3.49.87,1.45-.15,2.85-.6,4.2-1.36,1.34-.76,2.63-1.51,3.87-2.23l2.94-1.74c-.29,1.02-.33,1.98-.11,2.89.22.91.94,1.62,2.18,2.12.94.36,1.98.47,3.11.33,1.13-.15,2.23-.4,3.32-.76,1.09-.36,2.14-.8,3.16-1.31,1.02-.51,1.96-.94,2.83-1.31,1.31-.58,2.58-1.14,3.81-1.69,1.23-.54,2.47-1.11,3.71-1.69.29-.14.73-.33,1.31-.54.58-.22,1.16-.45,1.74-.71.34-.15.63-.32.88-.51.77-.09,1.64-.43,2.61-1.02,1.02-.62,1.89-1.11,2.62-1.47l2.72-1.09c-1.02,1.02-1.96,2.13-2.83,3.32-.87,1.2-1.51,2.38-1.91,3.54-.4,1.16-.44,2.22-.11,3.16.33.94,1.22,1.63,2.67,2.07.87.22,1.74.22,2.62,0,.87-.22,1.73-.56,2.56-1.04.83-.47,1.62-1.02,2.34-1.63.73-.62,1.38-1.22,1.96-1.8l5.45-4.69c-.15.36-.26.67-.33.93-.07.26-.15.53-.22.82-.22.58-.46,1.25-.71,2.02-.26.76-.44,1.56-.54,2.4-.11.84-.07,1.62.11,2.34.18.73.6,1.34,1.25,1.85.65.44,1.36.65,2.12.65s1.54-.15,2.34-.44c.8-.29,1.56-.64,2.29-1.04.73-.4,1.38-.75,1.96-1.04,1.96-1.09,3.96-2.18,5.99-3.27,2.03-1.09,4.07-2.14,6.1-3.16.51-.22,1.13-.45,1.85-.71.52-.18.94-.45,1.27-.8.05-.03.1-.04.14-.07.58-.4,1.05-.67,1.42-.82.58-.36,1.25-.78,2.02-1.25.76-.47,1.54-.89,2.34-1.25-.15.51-.16,1.05-.05,1.64.11.58.24,1.16.38,1.74.44,1.6,1.16,2.91,2.18,3.92,1.02,1.02,2.16,1.8,3.43,2.34,1.27.54,2.65.87,4.14.98,1.49.11,2.96.02,4.41-.27,3.27-.87,6.57-1.96,9.92-3.27l5.45-2.4c.51-.22,1.09-.44,1.74-.65.52-.17.94-.46,1.27-.86,3.04-1.52,5.96-3.19,8.75-5.03-.8,1.74-1.45,3.49-1.96,5.23-.22.8-.36,1.65-.44,2.56-.07.91.02,1.74.27,2.51.25.76.71,1.38,1.36,1.85s1.53.64,2.62.49c1.23-.07,2.43-.34,3.6-.82,1.16-.47,2.36-.93,3.6-1.36l12.64-4.69c.14-.06.28-.15.42-.23.27.01.57-.05.88-.21.58-.29,1.09-.54,1.53-.76,1.38-.73,2.74-1.49,4.09-2.29,1.34-.8,2.67-1.6,3.98-2.4l4.58-3.16c-.36.65-.71,1.31-1.04,1.96-.33.65-.67,1.35-1.04,2.07-1.74.87-3.47,2.09-5.18,3.65-1.71,1.56-3.31,3.25-4.8,5.07-1.49,1.82-2.78,3.67-3.87,5.56-1.09,1.89-1.89,3.6-2.4,5.12-.14.51-.33,1.13-.54,1.85-.22.73-.4,1.47-.54,2.23-.14.76-.22,1.51-.22,2.23s.15,1.34.44,1.85c.51.94,1.13,1.27,1.85.98.73-.29,1.44-.84,2.12-1.63.69-.8,1.34-1.67,1.96-2.62.62-.94,1.04-1.6,1.25-1.96,1.67-2.69,3.29-5.4,4.85-8.12,1.56-2.72,3.07-5.5,4.52-8.34.87,1.45,2,2.44,3.38,2.94,1.67.44,3.41.38,5.23-.16,1.82-.54,3.49-1.11,5.01-1.69l5.12-2.4c.38-.17.6-.41.7-.71.93-.49,1.86-.95,2.79-1.36,1.53-.73,3.09-1.36,4.69-1.91,1.6-.54,3.23-1.14,4.9-1.8-.44,1.31-.85,2.74-1.25,4.31-.4,1.56-.6,3.02-.6,4.36s.29,2.45.87,3.32c.58.87,1.63,1.2,3.16.98,1.74-.29,3.43-.82,5.07-1.58,1.63-.76,3.25-1.54,4.85-2.34.29-.14.94-.42,1.96-.82,1.02-.4,2.02-.83,3-1.31.67-.32,1.25-.67,1.77-1.04.26.01.53-.06.79-.21,1.31-.65,2.74-1.36,4.31-2.13,1.56-.76,3.05-1.51,4.47-2.23,1.42-.73,2.69-1.34,3.81-1.85,1.13-.51,1.94-.83,2.45-.98-.94.51-1.96,1.27-3.05,2.29-1.09,1.02-2.09,2.12-3,3.32-.91,1.2-1.65,2.36-2.23,3.49-.58,1.13-.87,2.05-.87,2.78.07,1.38.62,2.4,1.63,3.05,1.02.65,2.18.94,3.49.87,1.45-.15,2.85-.6,4.2-1.36,1.34-.76,2.63-1.51,3.87-2.23l2.94-1.74c-.29,1.02-.33,1.98-.11,2.89.22.91.94,1.62,2.18,2.12.94.36,1.98.47,3.11.33,1.13-.15,2.23-.4,3.32-.76,1.09-.36,2.14-.8,3.16-1.31,1.02-.51,1.96-.94,2.83-1.31,1.31-.58,2.58-1.14,3.81-1.69,1.23-.54,2.47-1.11,3.71-1.69.29-.14.73-.33,1.31-.54.58-.22,1.16-.45,1.74-.71.58-.25,1.04-.56,1.36-.93.33-.36.34-.76.05-1.2Zm-88.33-18.91c.54-.98,1.11-1.98,1.69-3,1.02-1.67,2.09-3.31,3.21-4.9,1.13-1.6,2.38-3.12,3.76-4.58.58-.58,1.22-1.18,1.91-1.8.69-.62,1.43-1.07,2.23-1.36-.07.73-.29,1.47-.65,2.23-.36.76-.73,1.4-1.09,1.91-1.09,1.82-2.47,3.67-4.14,5.56-1.31,1.67-2.69,3.23-4.14,4.69-1.45,1.45-2.94,2.87-4.47,4.25.58-1.02,1.14-2.02,1.69-3Zm-36.56,3.38c.73-1.13,1.49-2.27,2.29-3.43,1.45-1.96,2.91-3.87,4.36-5.72,1.45-1.85,3.01-3.61,4.69-5.29.58-.58,1.32-1.31,2.23-2.18.91-.87,1.87-1.56,2.89-2.07-.22.58-.47,1.14-.76,1.69-.29.54-.51,1-.65,1.36-1.16,1.96-2.4,3.71-3.71,5.23-2.83,3.71-5.96,7.16-9.37,10.35-.65.58-1.33,1.18-2.02,1.8-.69.62-1.36,1.18-2.02,1.69.65-1.16,1.34-2.31,2.07-3.43Zm-46.1,9.7c.65-.69,1.4-1.25,2.23-1.69.83-.44,1.74-.73,2.72-.87.98-.14,1.98-.04,3,.33-1.24,1.24-2.67,2.25-4.3,3.05-1.63.8-3.32,1.24-5.07,1.31.29-.73.76-1.43,1.42-2.12Zm-21.69-12.48c1.31-2.11,2.69-4.14,4.14-6.1,1.45-1.96,3.01-3.85,4.69-5.67.51-.58,1.2-1.38,2.07-2.4.87-1.02,1.82-1.71,2.83-2.07-.15.8-.53,1.67-1.14,2.62-.62.95-1.04,1.63-1.25,2.07-.65,1.09-1.35,2.12-2.07,3.11-.73.98-1.45,1.98-2.18,3-1.67,2.18-3.42,4.31-5.23,6.38-1.82,2.07-3.67,4.09-5.56,6.05l-.65.65,4.36-7.63Zm-94.71,2.78c.73-1.13,1.49-2.27,2.29-3.43,1.45-1.96,2.91-3.87,4.36-5.72,1.45-1.85,3.01-3.61,4.69-5.29.58-.58,1.32-1.31,2.23-2.18.91-.87,1.87-1.56,2.89-2.07-.22.58-.47,1.14-.76,1.69-.29.54-.51,1-.65,1.36-1.16,1.96-2.4,3.71-3.71,5.23-2.83,3.71-5.96,7.16-9.37,10.35-.65.58-1.33,1.18-2.02,1.8-.69.62-1.36,1.18-2.02,1.69.65-1.16,1.34-2.31,2.07-3.43Zm179.77,27.19c-1.78,2.76-3.72,5.3-5.83,7.63.29-3.05,1.51-6.01,3.65-8.88,2.14-2.87,4.56-5.25,7.25-7.14-1.6,2.83-3.29,5.63-5.07,8.39Z"/>
</svg>